<mxfile host="app.diagrams.net" modified="2020-12-14T14:49:51.125Z" agent="5.0 (Macintosh; Intel Mac OS X 10_15_6) AppleWebKit/605.1.15 (KHTML, like Gecko) Version/14.0.1 Safari/605.1.15" etag="tCPr8x4jEVSvfjAWOmf7" version="14.0.1" type="github">
  <diagram id="Oa0qm88gr_UXzZw1ZPME" name="Page-1">
    <mxGraphModel dx="1055" dy="1894" grid="1" gridSize="10" guides="1" tooltips="1" connect="1" arrows="1" fold="1" page="1" pageScale="1" pageWidth="827" pageHeight="1169" math="0" shadow="0">
      <root>
        <mxCell id="0" />
        <mxCell id="1" parent="0" />
        <mxCell id="kgAJO2vd__YSLsy1XApW-1" value="" style="rounded=0;whiteSpace=wrap;html=1;fillColor=#f5f5f5;strokeColor=#666666;fontColor=#333333;" parent="1" vertex="1">
          <mxGeometry x="7" y="-10" width="820" height="510" as="geometry" />
        </mxCell>
        <mxCell id="kgAJO2vd__YSLsy1XApW-2" value="&lt;h1&gt;Développeuse Web et Web Mobile&lt;/h1&gt;" style="rounded=0;whiteSpace=wrap;html=1;fillColor=#ffe6cc;strokeColor=#d79b00;" parent="1" vertex="1">
          <mxGeometry x="10" y="10" width="570" height="60" as="geometry" />
        </mxCell>
        <mxCell id="kgAJO2vd__YSLsy1XApW-3" value="&lt;h2&gt;Mes infos&lt;/h2&gt;" style="rounded=0;whiteSpace=wrap;html=1;fillColor=#d5e8d4;strokeColor=#82b366;" parent="1" vertex="1">
          <mxGeometry x="10" y="80" width="570" height="150" as="geometry" />
        </mxCell>
        <mxCell id="kgAJO2vd__YSLsy1XApW-4" value="&lt;h2&gt;Mes expériences&lt;/h2&gt;" style="rounded=0;whiteSpace=wrap;html=1;fillColor=#dae8fc;strokeColor=#6c8ebf;" parent="1" vertex="1">
          <mxGeometry x="10" y="240" width="260" height="250" as="geometry" />
        </mxCell>
        <mxCell id="kgAJO2vd__YSLsy1XApW-5" value="&lt;h2&gt;Ma photo&lt;/h2&gt;" style="whiteSpace=wrap;html=1;aspect=fixed;fillColor=#e1d5e7;strokeColor=#9673a6;" parent="1" vertex="1">
          <mxGeometry x="590" y="10" width="220" height="220" as="geometry" />
        </mxCell>
        <mxCell id="kgAJO2vd__YSLsy1XApW-6" value="&lt;h2&gt;Mes connaissances&lt;/h2&gt;" style="rounded=0;whiteSpace=wrap;html=1;fillColor=#f8cecc;strokeColor=#b85450;" parent="1" vertex="1">
          <mxGeometry x="280" y="240" width="260" height="250" as="geometry" />
        </mxCell>
        <mxCell id="kgAJO2vd__YSLsy1XApW-7" value="&lt;h2&gt;Mes formations&lt;/h2&gt;" style="rounded=0;whiteSpace=wrap;html=1;fillColor=#fff2cc;strokeColor=#d6b656;" parent="1" vertex="1">
          <mxGeometry x="550" y="240" width="260" height="250" as="geometry" />
        </mxCell>
        <mxCell id="kgAJO2vd__YSLsy1XApW-8" value="" style="rounded=0;whiteSpace=wrap;html=1;fillColor=#f5f5f5;strokeColor=#666666;fontColor=#333333;" parent="1" vertex="1">
          <mxGeometry x="253" y="585" width="320" height="550" as="geometry" />
        </mxCell>
        <mxCell id="kgAJO2vd__YSLsy1XApW-9" value="&lt;h3&gt;Développeuse Web et Web Mobile&lt;/h3&gt;" style="rounded=0;whiteSpace=wrap;html=1;fillColor=#ffe6cc;strokeColor=#d79b00;" parent="1" vertex="1">
          <mxGeometry x="256" y="610" width="317" height="55" as="geometry" />
        </mxCell>
        <mxCell id="kgAJO2vd__YSLsy1XApW-11" value="&lt;h3&gt;Ma photo&lt;/h3&gt;" style="whiteSpace=wrap;html=1;aspect=fixed;fillColor=#e1d5e7;strokeColor=#9673a6;" parent="1" vertex="1">
          <mxGeometry x="256" y="670" width="80" height="80" as="geometry" />
        </mxCell>
        <mxCell id="kgAJO2vd__YSLsy1XApW-12" value="&lt;h3&gt;Mes infos&lt;/h3&gt;" style="rounded=0;whiteSpace=wrap;html=1;fillColor=#d5e8d4;strokeColor=#82b366;" parent="1" vertex="1">
          <mxGeometry x="340" y="670" width="230" height="80" as="geometry" />
        </mxCell>
        <mxCell id="kgAJO2vd__YSLsy1XApW-13" value="&lt;h3&gt;Mes expériences&lt;/h3&gt;" style="rounded=0;whiteSpace=wrap;html=1;fillColor=#dae8fc;strokeColor=#6c8ebf;" parent="1" vertex="1">
          <mxGeometry x="256" y="770" width="314" height="110" as="geometry" />
        </mxCell>
        <mxCell id="kgAJO2vd__YSLsy1XApW-14" value="&lt;h3&gt;Mes expériences&lt;/h3&gt;" style="rounded=0;whiteSpace=wrap;html=1;fillColor=#f8cecc;strokeColor=#b85450;" parent="1" vertex="1">
          <mxGeometry x="256" y="890" width="314" height="110" as="geometry" />
        </mxCell>
        <mxCell id="kgAJO2vd__YSLsy1XApW-15" value="&lt;h3&gt;Mes expériences&lt;/h3&gt;" style="rounded=0;whiteSpace=wrap;html=1;fillColor=#fff2cc;strokeColor=#d6b656;" parent="1" vertex="1">
          <mxGeometry x="256" y="1010" width="314" height="110" as="geometry" />
        </mxCell>
      </root>
    </mxGraphModel>
  </diagram>
</mxfile>
